<?xml version="1.0" standalone="no"?>
<!DOCTYPE svg PUBLIC "-//W3C//DTD SVG 20010904//EN"
 "http://www.w3.org/TR/2001/REC-SVG-20010904/DTD/svg10.dtd">
<svg version="1.0" xmlns="http://www.w3.org/2000/svg"
 width="900.000000pt" height="900.000000pt" viewBox="0 0 900.000000 900.000000"
 preserveAspectRatio="xMidYMid meet">
<metadata>
Created by potrace 1.10, written by Peter Selinger 2001-2011
</metadata>
<g transform="translate(0.000000,900.000000) scale(0.100000,-0.100000)"
fill="#0c0b8b" stroke="none">
<path d="M4155 8991 c-15 -26 45 -31 334 -31 164 0 306 3 315 6 9 3 16 12 16
20 0 12 -55 14 -329 14 -198 0 -332 -4 -336 -9z"/>
<path d="M3875 8945 c-22 -8 -67 -15 -100 -15 -33 0 -73 -7 -89 -15 -15 -8
-49 -15 -75 -15 -25 0 -59 -7 -75 -15 -15 -8 -45 -15 -65 -15 -20 0 -49 -7
-65 -15 -15 -8 -42 -15 -60 -15 -17 -1 -42 -7 -56 -15 -14 -8 -39 -14 -57 -15
-17 0 -38 -7 -47 -15 -8 -8 -28 -15 -43 -15 -16 0 -38 -7 -49 -15 -10 -8 -31
-15 -45 -15 -14 0 -34 -7 -45 -15 -10 -8 -31 -15 -45 -15 -15 0 -32 -7 -39
-15 -7 -8 -25 -15 -40 -15 -15 0 -33 -7 -40 -15 -7 -8 -23 -15 -35 -15 -12 0
-28 -7 -35 -15 -7 -8 -23 -15 -36 -15 -12 0 -29 -7 -38 -15 -8 -8 -23 -15 -34
-15 -11 0 -25 -7 -32 -15 -7 -8 -23 -15 -37 -15 -13 0 -26 -7 -29 -15 -4 -8
-16 -15 -29 -15 -12 0 -28 -7 -35 -15 -7 -8 -20 -15 -30 -15 -10 0 -23 -7 -30
-15 -7 -8 -20 -15 -29 -15 -9 0 -22 -5 -28 -11 -13 -13 -47 -33 -83 -49 -13
-6 -27 -14 -30 -18 -3 -4 -25 -17 -50 -30 -52 -26 -61 -32 -148 -89 -35 -24
-66 -43 -68 -43 -3 0 -32 -20 -64 -45 -32 -25 -63 -45 -70 -45 -6 0 -13 -7
-16 -15 -4 -8 -11 -15 -16 -15 -10 0 -84 -54 -103 -75 -5 -6 -39 -33 -75 -60
-72 -54 -78 -60 -218 -190 -121 -112 -145 -136 -257 -257 -130 -140 -136 -146
-190 -218 -27 -36 -54 -69 -60 -75 -21 -19 -75 -93 -75 -103 0 -5 -7 -12 -15
-16 -8 -3 -15 -10 -15 -16 0 -7 -20 -38 -45 -70 -25 -32 -45 -61 -45 -64 0 -2
-19 -33 -43 -68 -61 -93 -66 -101 -76 -125 -6 -11 -15 -24 -20 -28 -6 -3 -11
-14 -11 -25 0 -10 -7 -20 -15 -24 -8 -3 -15 -14 -15 -24 0 -11 -7 -25 -15 -32
-8 -7 -15 -18 -15 -25 0 -7 -7 -18 -15 -25 -8 -7 -15 -20 -15 -30 0 -10 -7
-23 -15 -30 -8 -7 -15 -20 -15 -30 0 -10 -7 -23 -15 -30 -8 -7 -15 -20 -15
-30 0 -10 -7 -23 -15 -30 -8 -7 -15 -23 -15 -35 0 -12 -7 -28 -15 -35 -8 -7
-15 -21 -15 -32 0 -11 -7 -26 -15 -34 -8 -9 -15 -26 -15 -38 0 -13 -7 -29 -15
-36 -8 -7 -15 -23 -15 -35 0 -12 -7 -28 -15 -35 -8 -7 -15 -25 -15 -40 0 -15
-7 -33 -15 -40 -8 -7 -15 -24 -15 -39 0 -14 -7 -35 -15 -45 -8 -11 -15 -31
-15 -45 0 -14 -7 -35 -15 -45 -8 -11 -15 -31 -15 -45 0 -14 -7 -35 -15 -45 -8
-11 -15 -34 -15 -50 -1 -17 -7 -42 -15 -56 -8 -14 -14 -39 -15 -56 0 -18 -7
-45 -15 -60 -8 -16 -15 -43 -15 -60 0 -17 -7 -48 -15 -67 -8 -20 -15 -54 -15
-75 0 -22 -7 -56 -15 -75 -8 -20 -15 -62 -15 -94 0 -32 -7 -76 -15 -98 -18
-50 -21 -265 -4 -248 6 6 13 61 16 125 3 62 11 132 19 156 8 23 14 67 14 96 0
30 7 67 15 82 8 16 15 50 15 75 0 26 7 60 15 75 8 16 15 47 15 69 0 22 7 49
15 59 8 11 15 36 15 55 0 20 7 45 15 55 8 11 15 34 15 50 0 17 7 40 15 50 8
11 15 34 15 52 0 17 7 37 15 44 8 7 15 26 15 42 0 16 7 36 15 44 8 9 15 28 15
43 0 16 7 34 15 41 8 7 15 22 15 34 0 11 7 30 15 40 8 11 15 30 15 42 0 12 7
27 15 34 8 7 15 23 15 35 0 12 7 28 15 35 8 7 15 20 15 29 0 9 7 25 15 35 8
11 15 27 15 37 0 9 7 22 15 29 8 7 15 20 15 30 0 10 7 23 15 30 8 7 15 20 15
30 0 10 7 23 15 30 8 7 15 21 15 31 0 11 4 19 10 19 5 0 12 11 16 25 3 13 12
29 20 36 8 6 14 19 14 29 0 10 7 20 15 24 8 3 15 14 15 24 0 11 7 25 15 32 8
7 15 19 15 26 0 8 4 14 10 14 5 0 12 11 16 25 3 14 10 25 15 25 5 0 14 10 19
23 13 28 28 53 63 98 15 20 27 40 27 43 0 8 210 289 222 297 4 3 19 21 33 40
85 115 459 489 574 574 19 14 37 29 40 33 8 12 289 222 297 222 3 0 23 12 43
28 45 34 70 49 99 62 12 5 22 14 22 20 0 5 6 10 14 10 8 0 21 6 28 13 17 15
48 35 66 42 6 3 18 7 25 10 6 3 26 14 42 25 17 11 42 25 58 31 15 6 27 15 27
20 0 5 8 9 19 9 10 0 24 7 31 15 7 8 20 15 30 15 10 0 23 7 30 15 7 8 20 15
30 15 10 0 23 7 30 15 7 8 20 15 29 15 10 0 26 7 37 15 10 8 26 15 35 15 9 0
22 7 29 15 7 8 23 15 35 15 12 0 28 7 35 15 7 8 22 15 34 15 12 0 31 7 42 15
10 8 28 15 40 15 11 0 29 7 40 15 10 8 28 15 40 15 11 0 29 7 40 15 10 8 31
15 45 15 14 0 34 7 45 15 10 8 31 15 45 15 14 0 34 7 45 15 10 8 33 15 50 15
16 0 39 7 50 15 10 8 35 15 55 15 19 0 44 7 55 15 10 8 37 15 59 15 22 0 53 7
69 15 15 8 49 15 75 15 25 0 59 7 75 15 15 8 52 15 82 15 29 0 73 6 96 14 24
8 94 16 156 19 64 3 119 10 125 16 17 17 -198 14 -248 -4z"/>
<path d="M4868 8948 c6 -6 56 -13 119 -16 59 -2 127 -10 151 -18 23 -8 67 -14
96 -14 30 0 67 -7 82 -15 16 -8 52 -15 79 -15 28 0 59 -7 69 -15 11 -8 40 -15
65 -15 25 0 55 -7 65 -15 11 -8 36 -15 55 -15 20 0 45 -7 55 -15 11 -8 34 -15
50 -15 17 0 40 -7 50 -15 11 -8 33 -15 49 -15 15 0 35 -7 43 -15 9 -8 29 -15
45 -15 17 0 37 -7 45 -15 9 -8 25 -15 37 -15 12 0 31 -7 41 -15 11 -8 29 -15
40 -15 12 0 30 -7 40 -15 11 -8 30 -15 42 -15 12 0 27 -7 34 -15 7 -8 23 -15
35 -15 12 0 28 -7 35 -15 7 -8 20 -15 30 -15 10 0 23 -7 30 -15 7 -8 23 -15
35 -15 12 0 28 -7 35 -15 7 -8 20 -15 30 -15 10 0 23 -7 30 -15 7 -8 20 -15
30 -15 10 0 23 -7 30 -15 7 -8 21 -15 31 -15 11 0 19 -4 19 -9 0 -5 12 -14 28
-20 15 -6 41 -20 57 -30 17 -11 50 -30 75 -43 25 -13 49 -29 53 -35 4 -7 17
-13 27 -13 11 0 20 -5 20 -10 0 -6 10 -15 23 -20 28 -13 53 -28 98 -62 20 -16
42 -28 48 -28 7 0 14 -7 17 -15 4 -8 10 -15 16 -15 10 0 207 -146 224 -166 6
-8 16 -14 23 -14 6 0 11 -4 11 -8 0 -5 15 -20 34 -33 119 -85 502 -469 585
-585 13 -19 28 -34 33 -34 4 0 8 -5 8 -11 0 -7 6 -17 14 -23 17 -14 196 -253
196 -262 0 -3 13 -23 28 -43 16 -20 32 -43 35 -51 4 -8 16 -28 27 -45 11 -16
23 -37 27 -45 4 -8 18 -31 31 -50 13 -19 28 -44 33 -55 5 -11 18 -33 29 -50
11 -16 22 -37 26 -45 3 -8 10 -22 15 -30 5 -8 14 -27 20 -42 6 -16 15 -28 20
-28 5 0 9 -8 9 -19 0 -10 7 -24 15 -31 8 -7 15 -21 15 -31 0 -9 7 -24 15 -33
8 -8 15 -23 15 -34 0 -11 7 -25 15 -32 8 -7 15 -23 15 -37 0 -13 7 -26 15 -29
8 -4 15 -15 15 -26 0 -11 6 -32 13 -46 8 -15 21 -42 30 -60 9 -19 17 -41 17
-51 0 -9 7 -26 15 -37 8 -10 15 -28 15 -40 0 -11 7 -29 15 -40 8 -10 15 -31
15 -45 0 -14 7 -34 15 -45 8 -10 15 -31 15 -45 0 -14 7 -34 15 -45 8 -10 15
-35 15 -55 0 -19 7 -44 15 -55 8 -10 15 -35 15 -55 0 -19 7 -44 15 -55 8 -10
15 -37 15 -59 0 -22 7 -53 15 -69 8 -15 15 -46 15 -67 0 -22 7 -56 15 -76 8
-19 15 -59 15 -89 0 -29 6 -73 14 -96 8 -24 16 -94 19 -156 3 -64 10 -119 16
-125 17 -17 14 198 -4 248 -8 22 -15 66 -15 98 0 32 -7 74 -15 94 -8 19 -15
56 -15 82 0 25 -7 59 -15 75 -8 15 -15 45 -15 65 -1 20 -7 47 -15 61 -8 14
-14 41 -15 61 0 19 -7 44 -15 55 -8 10 -15 33 -15 50 0 16 -7 39 -15 50 -8 10
-15 33 -15 50 0 16 -7 39 -15 50 -8 10 -15 31 -15 45 0 14 -7 34 -15 45 -8 10
-15 28 -15 40 0 11 -7 29 -15 40 -8 10 -15 28 -15 40 0 11 -7 29 -15 40 -8 10
-15 29 -15 40 0 12 -7 27 -15 34 -8 7 -15 23 -15 35 0 12 -7 28 -15 35 -8 7
-15 23 -15 35 0 12 -7 28 -15 35 -8 7 -15 20 -15 30 0 10 -7 23 -15 30 -8 7
-15 23 -15 35 0 12 -7 28 -15 35 -8 7 -15 21 -15 31 0 10 -5 21 -11 24 -5 4
-14 17 -20 28 -5 12 -13 29 -18 37 -5 8 -12 22 -15 30 -4 8 -15 29 -26 45 -11
17 -25 42 -31 58 -6 15 -15 27 -20 27 -5 0 -9 8 -9 19 0 10 -7 24 -15 31 -8 7
-15 19 -15 27 0 7 -6 16 -14 19 -8 3 -17 13 -20 22 -4 9 -12 26 -19 37 -48 77
-75 117 -114 167 -23 31 -43 59 -43 62 0 2 -13 20 -30 38 -16 18 -30 38 -30
45 0 6 -6 16 -13 20 -7 4 -29 29 -49 56 -126 167 -520 561 -692 693 -25 19
-59 47 -78 64 -18 16 -38 30 -46 30 -7 0 -15 7 -18 15 -4 8 -12 15 -20 15 -8
0 -14 4 -14 9 0 6 -11 16 -24 23 -14 7 -57 36 -98 63 -88 61 -108 73 -130 81
-10 3 -18 10 -18 15 0 8 -10 14 -97 59 -26 14 -50 28 -53 32 -3 4 -17 12 -30
18 -36 16 -70 36 -83 49 -6 6 -19 11 -28 11 -9 0 -22 7 -29 15 -7 8 -20 15
-30 15 -10 0 -23 7 -30 15 -7 8 -23 15 -35 15 -13 0 -25 7 -29 15 -3 8 -16 15
-29 15 -14 0 -30 7 -37 15 -7 8 -21 15 -32 15 -11 0 -26 7 -34 15 -9 8 -26 15
-38 15 -13 0 -29 7 -36 15 -7 8 -23 15 -35 15 -12 0 -28 7 -35 15 -7 8 -25 15
-40 15 -15 0 -33 7 -40 15 -7 8 -24 15 -39 15 -14 0 -35 7 -45 15 -11 8 -31
15 -45 15 -14 0 -35 7 -45 15 -11 8 -33 15 -49 15 -15 0 -35 7 -43 15 -9 8
-32 15 -52 15 -20 0 -46 7 -56 15 -11 8 -34 15 -52 15 -17 0 -45 7 -60 15 -16
8 -45 15 -65 15 -20 0 -50 7 -65 15 -16 8 -50 15 -75 15 -26 0 -60 7 -75 15
-16 8 -56 15 -89 15 -33 0 -78 7 -100 15 -51 18 -255 21 -237 3z"/>
<path d="M4210 8880 c-30 -4 -87 -8 -127 -9 -39 -1 -107 -8 -150 -16 -43 -8
-93 -15 -111 -15 -18 0 -61 -6 -95 -14 -91 -21 -165 -36 -223 -45 -28 -5 -61
-14 -72 -20 -11 -6 -31 -11 -44 -11 -12 0 -40 -6 -63 -14 -22 -7 -67 -21 -100
-31 -33 -9 -76 -23 -95 -30 -86 -30 -107 -37 -139 -45 -18 -5 -38 -13 -44 -19
-6 -6 -20 -11 -30 -11 -10 0 -31 -6 -45 -13 -28 -14 -84 -40 -137 -61 -16 -7
-59 -27 -95 -43 -36 -17 -72 -34 -80 -37 -8 -3 -23 -10 -32 -16 -33 -19 -53
-29 -113 -59 -33 -17 -82 -44 -110 -61 -27 -16 -59 -34 -70 -40 -23 -12 -26
-13 -164 -105 -124 -83 -214 -146 -221 -155 -3 -3 -34 -28 -70 -55 -255 -193
-562 -500 -755 -755 -27 -36 -52 -67 -55 -70 -14 -10 -219 -311 -233 -340 -4
-8 -16 -28 -26 -45 -36 -56 -123 -215 -161 -295 -12 -25 -26 -52 -31 -60 -5
-8 -12 -22 -15 -30 -3 -8 -13 -31 -22 -50 -15 -35 -32 -74 -60 -140 -8 -19
-21 -47 -29 -62 -7 -14 -13 -35 -13 -45 0 -10 -5 -24 -11 -30 -6 -6 -14 -26
-19 -44 -10 -40 -29 -97 -41 -121 -5 -10 -13 -34 -18 -55 -5 -21 -14 -51 -19
-68 -30 -90 -42 -135 -42 -153 0 -11 -7 -36 -15 -55 -8 -20 -15 -50 -15 -67 0
-17 -4 -40 -10 -50 -5 -10 -14 -47 -19 -82 -6 -35 -14 -88 -20 -118 -41 -220
-56 -420 -56 -730 0 -310 15 -510 56 -730 6 -30 14 -83 20 -118 5 -35 14 -72
19 -82 6 -10 10 -33 10 -50 0 -17 7 -47 15 -67 8 -19 15 -45 15 -56 0 -12 6
-39 14 -62 7 -22 21 -67 31 -100 9 -33 23 -76 30 -95 30 -86 37 -107 45 -139
5 -18 13 -38 19 -44 6 -6 11 -17 11 -25 0 -8 7 -30 16 -50 20 -48 40 -94 57
-135 18 -42 106 -228 117 -247 5 -8 21 -39 36 -69 14 -29 43 -82 65 -118 21
-35 39 -65 39 -68 0 -3 20 -34 45 -71 25 -36 45 -67 45 -69 0 -4 69 -106 119
-176 171 -239 449 -546 661 -728 47 -40 96 -83 110 -95 14 -12 54 -44 90 -71
36 -27 70 -53 75 -57 48 -38 145 -108 151 -108 3 0 23 -14 44 -30 21 -16 40
-30 43 -30 3 0 34 -19 69 -42 35 -24 79 -52 98 -63 19 -10 53 -29 75 -42 22
-12 63 -34 90 -48 28 -14 57 -30 65 -35 17 -10 198 -95 245 -115 17 -7 46 -20
65 -28 38 -17 81 -33 235 -89 84 -31 111 -40 135 -45 14 -3 39 -11 57 -19 17
-8 39 -14 48 -14 10 0 38 -7 64 -15 58 -18 145 -39 241 -59 41 -8 107 -22 146
-31 40 -8 87 -15 105 -15 18 0 69 -6 113 -14 235 -42 857 -42 1092 0 44 8 95
14 113 14 18 0 65 7 105 15 39 9 105 23 146 31 156 32 386 94 448 120 18 8 39
14 47 14 8 0 29 6 47 14 33 14 89 36 163 63 37 14 67 26 140 58 41 18 356 173
375 185 8 5 66 39 129 77 123 74 130 78 218 137 68 47 287 210 323 242 14 12
63 55 110 95 109 95 294 280 389 389 40 47 83 96 95 110 32 36 195 255 242
323 59 88 63 95 137 218 38 63 72 121 77 129 42 68 208 421 244 518 9 23 23
61 32 85 15 39 21 55 54 147 6 19 14 46 17 60 3 14 11 39 19 57 8 17 14 39 14
48 0 10 7 38 15 64 18 58 39 145 59 241 8 41 22 107 31 146 8 40 15 91 15 115
0 24 5 60 10 79 29 95 45 626 27 895 -7 116 -27 277 -49 400 -5 33 -13 83 -18
110 -4 28 -13 73 -20 100 -6 28 -19 77 -27 110 -14 59 -28 113 -60 225 -8 30
-21 70 -29 88 -8 18 -14 39 -14 47 0 8 -6 29 -14 47 -14 33 -36 89 -63 163
-34 92 -141 328 -173 385 -5 8 -21 38 -35 65 -14 28 -36 68 -48 90 -13 22 -32
56 -42 75 -11 19 -39 63 -62 98 -24 35 -43 66 -43 69 0 3 -13 22 -30 43 -16
21 -30 41 -30 44 0 6 -70 103 -108 151 -4 6 -30 39 -57 75 -47 62 -110 139
-185 224 -44 51 -281 288 -341 341 -160 144 -325 270 -509 392 -47 31 -104 69
-128 84 -24 16 -45 29 -47 29 -3 0 -33 18 -68 39 -36 22 -89 51 -118 65 -53
27 -73 37 -106 56 -10 6 -25 13 -33 16 -8 3 -44 20 -80 37 -63 29 -103 47
-165 73 -16 7 -46 20 -67 28 -20 9 -42 16 -50 16 -8 0 -19 5 -25 11 -6 6 -26
14 -44 19 -32 8 -53 15 -139 45 -19 7 -62 21 -95 30 -33 10 -78 24 -100 31
-23 8 -51 14 -63 14 -13 0 -33 5 -44 11 -11 6 -44 15 -72 20 -58 9 -132 24
-223 45 -34 8 -79 14 -100 14 -21 0 -56 5 -78 10 -105 27 -740 48 -865 30z
m247 -299 c21 -10 51 -33 67 -50 28 -29 30 -35 28 -116 -1 -143 -49 -194 -197
-214 -49 -7 -93 -15 -97 -19 -4 -4 -9 -66 -10 -137 l-3 -130 -55 0 -55 0 -3
335 c-1 184 0 341 3 349 9 23 271 9 322 -18z m768 -61 c22 -6 65 -18 95 -27
30 -8 76 -21 101 -29 26 -8 56 -14 68 -14 20 0 22 -5 19 -42 -3 -41 -5 -43
-36 -46 -19 -2 -48 2 -65 8 -28 10 -85 23 -141 32 -16 2 -23 -8 -38 -57 -10
-33 -18 -76 -16 -95 3 -32 6 -35 43 -41 55 -9 176 -37 181 -42 2 -2 -2 -23 -9
-48 -10 -34 -18 -43 -33 -41 -74 10 -134 22 -162 32 -19 7 -37 9 -41 4 -15
-16 -41 -107 -41 -141 0 -29 5 -36 35 -49 19 -7 45 -14 58 -14 27 0 115 -28
122 -39 2 -5 0 -24 -6 -44 -9 -35 -13 -37 -49 -37 -21 0 -51 5 -67 11 -15 6
-50 15 -78 20 -27 5 -72 15 -100 23 -55 15 -53 10 -37 106 9 52 14 75 43 195
6 28 15 73 19 100 5 28 13 63 19 78 6 16 11 40 11 54 0 15 7 51 16 82 9 31 18
62 20 69 2 8 10 11 17 8 6 -2 30 -10 52 -16z m-2163 -170 l17 -40 -32 -14
c-18 -7 -48 -18 -68 -25 -40 -13 -40 -7 -8 -103 6 -18 17 -55 25 -83 8 -27 21
-70 28 -95 33 -109 47 -158 57 -195 5 -21 15 -45 21 -52 5 -7 7 -24 4 -37 -5
-19 -15 -27 -41 -32 -50 -9 -62 -1 -73 48 -10 41 -15 58 -42 138 -7 19 -15 51
-19 70 -4 19 -13 45 -19 57 -7 12 -12 31 -12 42 0 11 -6 35 -14 53 -7 18 -22
59 -32 91 -17 55 -19 58 -43 52 -14 -4 -47 -9 -72 -12 -45 -5 -46 -4 -53 28
-8 39 1 49 57 65 23 6 67 19 97 28 30 10 74 21 98 26 24 5 51 14 60 19 31 19
47 11 64 -29z m3195 -187 c157 -77 221 -171 192 -281 -24 -95 -101 -152 -204
-152 -35 0 -66 -3 -69 -8 -2 -4 1 -30 8 -57 8 -28 16 -88 20 -133 l8 -84 -34
7 c-53 10 -82 37 -90 81 -40 235 -50 271 -64 227 -3 -10 -11 -31 -19 -48 -7
-16 -24 -54 -37 -82 -19 -44 -27 -53 -48 -53 -25 0 -90 34 -90 46 0 4 30 68
66 143 59 121 124 257 173 361 45 97 55 99 188 33z m-4047 -294 c76 -109 130
-185 140 -196 5 -7 10 -15 10 -18 0 -4 20 -33 45 -65 25 -33 57 -81 71 -108
23 -45 24 -52 13 -98 -24 -97 -158 -195 -265 -194 -62 1 -103 31 -182 131
-186 241 -252 329 -252 338 0 5 19 24 41 42 l42 33 34 -40 c19 -21 77 -95 130
-164 53 -69 99 -127 102 -130 4 -3 21 -24 40 -47 28 -37 38 -43 70 -43 71 0
162 88 133 128 -7 9 -15 24 -19 32 -4 8 -33 50 -65 92 -32 42 -58 80 -58 83 0
3 -26 41 -58 83 -32 42 -67 92 -78 110 l-19 32 29 25 c16 14 36 25 45 25 9 0
32 -23 51 -51z m4945 -241 c22 -20 59 -54 83 -76 23 -21 42 -47 42 -58 -1 -18
-32 -64 -44 -64 -3 0 -24 18 -48 40 -24 22 -46 40 -49 40 -8 0 -72 -69 -161
-172 -39 -46 -100 -116 -137 -156 -36 -41 -70 -80 -74 -88 -11 -19 -37 -17
-63 4 -47 39 -45 43 106 208 20 22 62 71 95 109 32 39 75 87 94 108 59 64 59
65 6 114 -46 42 -48 44 -34 69 24 47 49 46 99 0 25 -23 63 -58 85 -78z m-2649
-94 c77 -63 160 -148 206 -211 17 -24 35 -43 40 -43 4 0 8 -5 8 -10 0 -9 35
-65 50 -80 5 -5 64 -127 84 -175 51 -121 71 -280 51 -420 -7 -55 -19 -116 -26
-135 -45 -130 -68 -178 -131 -278 -16 -24 -28 -45 -28 -48 0 -10 -87 -118
-148 -185 l-61 -66 29 -21 c16 -12 32 -22 36 -22 4 0 15 -7 25 -16 16 -14 21
-12 66 31 61 59 144 123 208 161 27 16 59 34 70 41 11 7 27 15 35 18 8 4 29
12 45 19 168 74 295 99 525 104 182 4 273 -5 420 -40 25 -6 63 -14 85 -19 84
-17 259 -75 317 -105 14 -8 33 -14 42 -14 43 0 -4 -68 -159 -230 -182 -190
-351 -313 -515 -377 -123 -48 -156 -54 -289 -60 -253 -10 -423 24 -628 126
l-63 31 -35 -75 c-19 -42 -35 -79 -35 -84 0 -5 -6 -22 -14 -38 -17 -35 -37
-90 -43 -123 -3 -14 -11 -39 -19 -57 -8 -17 -14 -39 -14 -49 0 -9 -6 -40 -14
-68 -30 -107 -72 -341 -81 -451 -2 -38 -9 -101 -14 -140 -13 -90 -15 -425 -4
-436 5 -5 31 -1 61 9 l52 17 0 64 c0 115 41 348 76 429 8 18 14 39 14 46 0 17
52 115 99 186 38 58 159 182 197 203 135 72 213 100 367 131 91 19 415 22 487
5 25 -6 77 -14 115 -19 39 -5 90 -14 115 -21 77 -19 154 -40 185 -51 17 -5 44
-13 60 -18 42 -12 93 -30 143 -53 51 -23 51 -24 -21 -143 -29 -47 -57 -92 -62
-102 -51 -85 -252 -355 -327 -439 -138 -154 -303 -298 -423 -369 -48 -28 -213
-110 -285 -141 -19 -8 -48 -21 -63 -29 -16 -8 -35 -14 -42 -14 -8 0 -29 -6
-47 -14 -18 -7 -58 -20 -88 -29 -30 -8 -80 -22 -111 -31 -31 -9 -81 -16 -111
-16 -32 0 -60 -5 -66 -12 -13 -16 -32 -310 -33 -510 -1 -202 -12 -327 -30
-339 -17 -11 -119 -12 -136 -1 -10 6 -13 103 -15 408 l-3 399 -60 -3 c-33 -2
-64 -7 -68 -12 -5 -4 -10 -232 -12 -506 -2 -275 -4 -503 -4 -507 -1 -4 -34 -7
-73 -5 l-73 3 -5 510 -5 510 -67 3 -68 3 0 -386 c0 -247 -4 -393 -10 -406 -9
-16 -22 -19 -75 -19 -35 0 -66 4 -70 9 -9 15 -25 284 -34 574 -5 147 -11 270
-14 274 -4 3 -39 9 -79 14 -113 13 -280 58 -393 105 -108 44 -282 128 -350
168 -178 105 -389 311 -587 571 -46 62 -190 272 -202 296 -3 8 -15 28 -26 44
-11 17 -24 40 -29 52 -5 11 -15 24 -20 28 -14 8 -14 55 0 55 6 0 25 6 42 13
43 18 95 37 132 47 17 5 44 13 60 18 85 29 208 56 381 86 187 33 493 18 645
-29 26 -8 52 -15 58 -15 45 0 231 -117 296 -186 45 -47 82 -92 89 -106 3 -7
15 -26 26 -43 84 -129 138 -329 149 -548 l6 -129 53 -18 c79 -28 85 -23 77 74
-3 44 -10 164 -15 266 -8 175 -14 228 -40 395 -7 39 -15 93 -19 120 -14 88
-74 319 -107 408 -53 143 -89 223 -105 233 -6 3 -36 -6 -67 -21 -212 -101
-374 -132 -627 -121 -116 5 -152 10 -210 32 -38 14 -79 28 -89 31 -27 9 -128
63 -147 79 -8 8 -19 14 -23 14 -20 0 -204 151 -295 242 -90 89 -211 233 -211
250 0 19 261 114 375 137 22 5 60 13 85 19 147 35 238 44 420 40 248 -6 371
-32 560 -121 129 -61 220 -123 312 -214 55 -53 59 -55 76 -40 10 10 23 17 28
17 12 1 54 36 54 46 0 4 -21 30 -47 59 -65 69 -127 145 -132 159 -2 6 -16 27
-30 46 -43 57 -121 207 -121 231 0 6 -6 23 -14 37 -32 62 -41 128 -40 287 0
194 8 229 91 400 41 85 45 92 106 175 96 129 286 310 327 310 10 0 48 -25 86
-56z m-3070 -306 c32 -31 30 -59 -6 -83 -16 -11 -30 -27 -30 -36 0 -8 23 -40
51 -70 66 -71 234 -250 292 -314 26 -27 47 -53 47 -57 0 -3 -17 -21 -37 -38
l-38 -31 -45 48 c-25 27 -101 109 -170 182 -172 184 -189 201 -197 201 -5 0
-27 -18 -51 -40 -24 -22 -46 -40 -49 -40 -12 0 -53 43 -53 56 0 7 25 36 56 66
31 29 63 59 70 66 25 24 129 112 133 112 2 0 14 -10 27 -22z m6363 -312 c34
-35 36 -60 8 -95 -6 -7 -16 -21 -22 -32 -12 -21 -152 -248 -177 -287 -10 -15
-22 -36 -28 -47 -6 -11 -19 -33 -30 -50 -11 -16 -23 -37 -28 -45 -4 -8 -23
-39 -41 -67 l-34 -52 -27 19 c-55 39 -56 46 -22 96 18 24 32 47 32 50 0 4 14
23 30 44 33 42 36 52 18 72 -12 12 -120 145 -144 177 -10 12 -17 12 -60 -1
-132 -42 -153 -48 -163 -48 -16 0 -71 61 -71 77 0 7 7 13 16 13 9 0 30 6 47
14 18 8 43 16 57 19 14 3 41 11 60 17 86 31 109 38 165 55 33 9 76 23 95 30
19 7 62 20 95 30 33 9 74 23 90 30 55 25 97 19 134 -19z m-6875 -491 c37 -25
69 -45 72 -45 3 0 23 -13 44 -30 21 -16 41 -30 44 -30 3 0 35 -20 70 -44 35
-24 68 -45 72 -47 5 -2 49 -31 97 -63 81 -54 88 -61 82 -85 -7 -28 -33 -61
-47 -61 -5 0 -48 26 -96 58 -48 31 -91 59 -97 61 -5 2 -26 17 -46 32 -20 16
-39 29 -42 29 -3 0 -35 20 -71 45 -37 25 -69 45 -72 45 -3 0 -23 14 -44 30
-21 17 -41 30 -46 30 -13 0 -44 33 -44 47 0 16 40 73 51 73 4 0 37 -20 73 -45z
m7328 -332 c17 -21 38 -69 38 -86 0 -7 -9 -23 -20 -37 -11 -14 -86 -112 -165
-219 -101 -135 -142 -198 -135 -205 7 -7 16 -7 28 2 9 7 24 15 32 18 8 3 33
13 55 21 22 9 55 22 73 29 17 8 48 21 67 29 45 19 90 38 138 59 39 16 57 14
57 -6 0 -6 7 -19 16 -29 22 -24 9 -57 -24 -65 -15 -4 -38 -12 -52 -19 -40 -19
-89 -40 -175 -75 -44 -18 -96 -39 -115 -48 -19 -8 -50 -21 -67 -29 -18 -7 -48
-19 -65 -26 -18 -8 -50 -22 -71 -32 -20 -10 -38 -16 -40 -14 -59 81 -56 115
19 214 33 44 68 93 79 110 10 16 22 34 27 40 5 5 44 58 89 118 60 81 76 109
65 113 -8 3 -28 -1 -43 -9 -15 -8 -44 -21 -63 -29 -60 -25 -104 -44 -140 -60
-121 -54 -191 -80 -203 -75 -19 7 -31 85 -16 103 6 8 17 14 25 14 7 0 28 6 46
14 18 8 51 21 73 29 70 26 119 44 165 62 46 18 93 35 165 62 22 8 54 21 70 28
40 18 49 18 67 -2z m-7588 -356 c19 -14 19 -37 1 -108 -6 -22 -2 -27 32 -41
21 -9 65 -24 98 -33 33 -10 75 -24 93 -31 18 -8 39 -14 47 -14 8 0 29 -6 47
-14 18 -8 60 -22 93 -32 102 -29 145 -48 145 -64 0 -8 -9 -30 -20 -48 -17 -27
-25 -32 -43 -27 -77 23 -133 42 -227 74 -19 7 -49 16 -65 20 -17 4 -40 13 -52
19 -12 7 -30 12 -41 12 -10 0 -32 6 -48 14 -16 8 -45 17 -64 20 -29 5 -38 2
-49 -16 -8 -13 -17 -36 -20 -52 -9 -41 -31 -52 -70 -36 -29 11 -31 16 -26 44
3 17 12 47 19 66 28 75 38 106 46 140 4 19 12 46 18 60 6 14 13 33 16 43 6 20
44 23 70 4z m7840 -950 c6 -23 6 -41 0 -46 -13 -13 -399 -56 -606 -68 l-78 -5
0 50 c0 36 4 52 15 56 9 3 85 10 170 16 85 6 161 13 170 16 17 7 232 22 285
20 32 -1 36 -4 44 -39z m-7466 -64 c73 -34 122 -117 122 -204 0 -50 -4 -63
-32 -99 -36 -46 -80 -72 -145 -87 -51 -12 -63 -3 -63 49 0 39 3 41 50 52 46
10 70 42 70 94 0 51 -9 69 -50 96 -63 41 -139 5 -175 -84 -33 -85 -50 -112
-85 -140 -68 -54 -193 -53 -249 2 -72 71 -90 159 -47 233 27 48 90 95 131 98
28 2 30 0 33 -38 3 -34 -1 -43 -31 -70 -46 -40 -59 -103 -28 -134 32 -32 69
-37 110 -15 35 19 41 27 82 117 28 63 104 128 166 144 53 12 91 9 141 -14z
m6882 -591 c14 -7 39 -22 55 -32 17 -11 39 -24 50 -30 11 -6 34 -19 50 -30 17
-11 39 -24 50 -30 23 -12 19 -10 193 -114 l132 -78 0 -48 c0 -58 -16 -77 -68
-85 -20 -3 -62 -10 -92 -16 -30 -6 -77 -15 -105 -19 -27 -4 -79 -12 -115 -19
-36 -7 -99 -19 -140 -26 -41 -8 -102 -19 -135 -25 -95 -18 -90 -20 -93 28 -4
55 10 72 62 72 41 1 145 22 165 35 6 3 11 20 11 37 0 16 7 57 16 90 24 95 17
125 -36 164 -25 18 -50 33 -56 33 -5 1 -27 16 -47 35 -32 30 -36 38 -31 67 11
63 10 63 62 33 26 -15 58 -34 72 -42z m-6604 -445 c6 -17 15 -41 19 -51 7 -16
-26 -52 -200 -221 -127 -123 -204 -205 -197 -209 7 -4 33 0 59 8 47 14 111 31
183 46 51 11 129 30 174 43 35 10 40 9 58 -13 25 -31 21 -84 -7 -88 -11 -1
-46 -9 -77 -17 -32 -8 -84 -21 -115 -29 -32 -8 -86 -22 -120 -30 -35 -9 -91
-23 -125 -32 -35 -8 -86 -22 -114 -30 -76 -21 -78 -20 -98 42 l-18 57 89 91
c207 211 308 318 312 328 5 16 -52 6 -214 -37 -251 -66 -257 -66 -270 5 l-6
36 54 17 c29 9 64 17 76 17 12 0 47 6 79 14 31 8 93 22 137 31 44 9 109 23
145 31 173 37 161 37 176 -9z m6248 -586 c3 -5 70 -41 148 -81 79 -40 197
-100 263 -134 l120 -62 -2 -39 c-2 -26 -11 -48 -26 -63 -21 -21 -38 -24 -148
-32 -68 -5 -151 -14 -184 -20 -33 -5 -96 -10 -140 -10 -91 0 -125 -12 -85 -29
14 -6 32 -15 40 -20 15 -9 191 -93 220 -105 8 -3 22 -10 30 -15 8 -5 37 -19
63 -32 56 -25 61 -34 49 -80 -9 -37 -31 -47 -66 -31 -11 6 -65 31 -118 56 -54
25 -142 67 -195 92 -145 69 -216 101 -235 108 -22 7 -24 58 -3 76 8 7 15 18
15 26 0 23 36 34 147 44 59 5 144 14 188 19 44 6 116 14 160 18 63 6 81 12 83
25 2 10 -6 19 -20 23 -21 6 -56 22 -288 134 -121 58 -115 51 -91 100 16 31 27
41 46 41 13 0 26 -4 29 -9z m-5809 -427 c31 -33 32 -62 3 -74 -13 -6 -30 -14
-38 -19 -35 -22 -166 -98 -180 -104 -8 -4 -28 -16 -45 -27 -16 -11 -39 -24
-50 -30 -11 -6 -36 -20 -55 -31 -19 -11 -71 -41 -114 -67 l-79 -46 -23 28
c-36 42 -31 71 16 93 14 7 48 26 75 42 28 17 59 35 70 41 11 6 34 19 50 30 17
11 39 24 50 30 11 6 34 19 50 30 17 11 44 26 60 34 44 22 107 59 135 79 33 23
47 22 75 -9z m998 -284 c14 0 44 -7 67 -15 23 -8 61 -15 84 -15 23 0 57 -5 76
-10 82 -24 270 -12 400 25 25 7 95 21 157 31 96 16 121 16 185 5 40 -7 87 -15
103 -18 17 -2 44 -11 62 -19 17 -8 35 -14 40 -14 6 0 88 -40 184 -88 205 -104
272 -127 337 -118 25 3 51 11 56 16 6 6 18 10 27 10 14 0 109 46 289 139 15 8
58 27 115 51 42 18 202 49 250 50 43 0 240 -33 290 -48 56 -18 166 -35 228
-35 76 -1 242 20 317 38 30 8 76 19 102 26 55 13 78 8 78 -20 0 -12 6 -38 13
-58 29 -82 46 -140 52 -183 l7 -45 -84 -17 c-237 -47 -520 -64 -608 -37 -45
13 -175 28 -314 36 -167 9 -376 -22 -427 -64 -8 -7 -20 -13 -25 -13 -8 0 -145
-114 -224 -188 -39 -35 -150 -84 -179 -79 -74 14 -131 50 -254 160 -89 81
-122 107 -135 107 -5 0 -15 7 -22 15 -7 8 -20 15 -30 15 -9 0 -30 6 -46 14
-88 42 -520 40 -664 -3 -86 -27 -399 -8 -590 35 -36 8 -73 14 -84 14 -15 0
-17 6 -13 43 2 23 9 56 15 72 26 74 42 132 42 151 0 11 9 30 20 42 20 21 23
21 50 7 16 -8 40 -15 53 -15z m-13 -855 c7 -8 17 -15 22 -15 19 0 122 -86 144
-122 51 -80 17 -177 -79 -226 -43 -23 -46 -26 -32 -42 10 -11 15 -36 15 -73 0
-65 -22 -110 -72 -147 -29 -22 -43 -25 -118 -25 -63 0 -97 5 -130 20 -42 18
-117 69 -131 88 -10 14 2 48 26 82 12 17 42 63 66 103 24 40 52 85 61 100 10
15 22 36 28 47 13 24 23 40 74 120 21 33 45 70 52 83 17 25 55 29 74 7z m3405
-99 c61 -21 113 -78 121 -132 12 -80 -6 -141 -59 -200 -18 -21 -18 -22 10 -40
49 -33 67 -43 119 -69 28 -14 59 -34 68 -44 17 -19 16 -20 -26 -45 -43 -25
-76 -26 -105 -4 -23 18 -187 98 -195 96 -5 -2 12 -43 37 -93 25 -49 43 -95 41
-102 -6 -15 -65 -53 -83 -53 -6 0 -44 64 -83 143 -84 168 -84 166 -98 192 -7
11 -14 26 -17 33 -3 6 -7 18 -10 25 -3 6 -9 19 -14 27 -5 8 -12 22 -15 30 -3
8 -10 23 -16 33 -5 9 -15 25 -20 35 -23 40 -23 46 6 69 16 13 38 28 49 34 11
5 27 13 35 17 48 27 70 36 115 48 68 16 93 16 140 0z m-2634 -232 c30 -9 61
-20 69 -25 8 -5 24 -13 36 -18 32 -14 112 -108 134 -158 27 -61 28 -203 3
-260 -41 -88 -112 -159 -193 -192 -19 -8 -74 -16 -122 -18 -81 -4 -90 -2 -150
27 -75 37 -98 58 -142 125 -128 196 -27 452 204 518 72 20 97 20 161 1z m1939
-66 c59 -29 118 -90 154 -157 26 -48 29 -64 29 -146 1 -82 -3 -99 -27 -148
-35 -69 -90 -125 -158 -163 -49 -26 -61 -29 -153 -28 -95 0 -103 1 -160 33
-73 41 -94 61 -132 126 -99 168 -44 375 124 473 63 37 85 41 193 37 63 -3 97
-10 130 -27z m-912 -100 c55 -29 132 -101 132 -124 0 -6 7 -17 15 -24 25 -21
7 -30 -59 -30 -56 0 -64 3 -86 30 -14 16 -29 29 -34 30 -5 0 -18 8 -28 17 -14
13 -38 17 -98 17 -73 0 -84 -3 -122 -30 -23 -16 -55 -47 -70 -69 -24 -35 -27
-50 -28 -113 0 -87 21 -137 76 -179 70 -53 136 -65 217 -37 46 15 122 82 122
106 0 10 -35 14 -130 18 l-130 5 0 40 0 40 199 3 c110 1 203 -1 208 -6 9 -9
-22 -125 -43 -163 -25 -44 -103 -119 -144 -138 -125 -59 -247 -48 -368 33 -32
21 -83 92 -109 150 -28 61 -25 189 7 261 29 66 105 146 162 171 94 42 223 38
311 -8z"/>
<path d="M4247 8503 c-9 -8 -9 -186 -1 -207 7 -19 96 -22 141 -5 56 21 73 47
73 110 0 52 -3 60 -31 83 -27 23 -40 26 -103 26 -40 0 -76 -3 -79 -7z"/>
<path d="M6156 8068 c-9 -12 -16 -32 -16 -45 0 -12 -4 -24 -9 -27 -5 -3 -16
-29 -25 -57 -24 -74 -13 -84 111 -106 77 -13 133 33 133 107 0 40 -5 51 -38
83 -21 20 -44 37 -52 37 -8 0 -24 7 -34 15 -28 21 -52 19 -70 -7z"/>
<path d="M4380 7173 c-47 -69 -60 -88 -70 -108 -5 -11 -14 -27 -19 -35 -26
-46 -41 -80 -41 -93 0 -7 -8 -29 -17 -48 -24 -48 -24 -281 1 -364 30 -102 108
-266 162 -339 l21 -29 35 44 c39 48 128 227 128 256 0 11 5 24 10 29 17 17 35
134 34 229 0 131 -22 214 -85 332 -40 74 -106 163 -122 163 -7 0 -23 -17 -37
-37z"/>
<path d="M2820 5946 c0 -16 103 -120 138 -139 70 -40 175 -87 194 -87 7 0 33
-8 58 -17 58 -21 417 -24 465 -3 17 7 48 16 69 19 22 3 41 12 43 18 6 16 -51
68 -102 94 -22 11 -47 24 -55 28 -49 26 -65 33 -108 47 -126 43 -217 54 -464
54 -200 0 -238 -2 -238 -14z"/>
<path d="M5455 5944 c-150 -36 -264 -84 -351 -146 -63 -45 -67 -77 -8 -78 12
0 39 -7 60 -17 60 -25 384 -25 474 1 124 35 190 64 265 115 62 42 127 109 122
124 -6 19 -485 20 -562 1z"/>
<path d="M4365 5717 c-23 -18 -56 -46 -75 -64 l-34 -32 43 -88 c23 -48 48
-101 55 -118 7 -16 20 -46 29 -65 9 -19 17 -48 19 -65 4 -45 20 -33 43 32 24
65 35 91 76 178 16 33 29 65 29 71 0 7 7 17 15 24 8 7 15 18 15 25 0 16 -141
135 -160 134 -8 0 -33 -14 -55 -32z"/>
<path d="M2705 4803 c-38 -8 -80 -16 -92 -19 -13 -2 -23 -12 -23 -22 0 -22
172 -190 275 -268 94 -71 220 -154 234 -154 5 0 11 -4 13 -8 2 -5 15 -15 30
-23 58 -31 185 -93 218 -107 19 -8 44 -20 55 -25 11 -6 33 -14 50 -18 16 -4
44 -12 60 -17 35 -12 115 -35 201 -57 66 -17 164 -20 164 -6 0 11 -61 130 -90
176 -11 17 -25 40 -32 52 -27 45 -91 138 -102 148 -7 6 -25 28 -41 49 -33 44
-189 183 -220 197 -11 5 -40 21 -64 34 -24 14 -50 25 -56 25 -7 0 -26 7 -41
15 -16 8 -37 15 -46 15 -9 0 -43 7 -75 15 -75 20 -321 19 -418 -2z"/>
<path d="M5715 4805 c-27 -8 -58 -14 -68 -15 -11 0 -33 -6 -50 -14 -18 -7 -52
-21 -77 -32 -25 -10 -52 -24 -61 -31 -8 -7 -19 -13 -23 -13 -31 0 -199 -164
-284 -276 -64 -86 -152 -225 -152 -242 0 -5 -7 -15 -15 -22 -8 -7 -15 -20 -15
-30 0 -10 -7 -23 -15 -30 -8 -7 -12 -16 -9 -21 8 -14 115 -10 159 6 22 8 53
15 68 15 16 0 38 5 50 12 12 6 38 15 57 19 39 8 87 24 140 46 19 8 49 21 65
28 51 21 178 85 210 105 17 11 39 24 50 30 11 6 34 19 50 30 17 11 40 25 53
31 12 7 22 16 22 21 0 4 5 8 11 8 21 0 177 126 272 221 105 104 117 132 62
137 -17 1 -60 9 -97 17 -87 19 -334 19 -403 0z"/>
<path d="M7638 6815 c-5 -5 -43 -17 -158 -48 -25 -7 -46 -19 -47 -27 -2 -8 12
-31 30 -51 18 -19 42 -48 53 -63 22 -31 49 -28 65 8 5 11 18 35 29 51 11 17
23 37 27 45 3 8 17 32 30 53 l23 37 -23 0 c-13 0 -26 -2 -29 -5z"/>
<path d="M8066 3908 c-10 -31 -26 -134 -26 -161 0 -24 3 -28 18 -22 9 4 44 10
77 15 66 8 145 29 159 41 5 5 1 11 -10 15 -10 4 -37 19 -59 33 -64 41 -79 50
-102 60 -11 5 -24 15 -28 20 -9 15 -25 14 -29 -1z"/>
<path d="M2715 1410 c-19 -20 -30 -40 -60 -98 -22 -40 -12 -55 49 -72 59 -16
102 5 112 54 8 48 -1 71 -45 105 -38 30 -38 30 -56 11z"/>
<path d="M2592 1193 c-7 -3 -18 -15 -23 -27 -5 -11 -18 -34 -29 -51 -11 -16
-24 -40 -29 -51 -5 -12 -16 -24 -23 -27 -36 -13 49 -76 104 -77 33 0 76 17
106 44 17 15 22 30 22 66 0 40 -5 51 -37 82 -39 37 -68 50 -91 41z"/>
<path d="M5973 1328 c-35 -17 -63 -36 -63 -43 0 -22 95 -175 113 -181 11 -3
26 1 36 10 10 9 22 16 28 16 6 0 27 18 47 40 30 33 36 48 36 83 -1 63 -44 107
-107 107 -15 0 -56 -14 -90 -32z"/>
<path d="M3352 1078 c-67 -26 -113 -78 -136 -151 -17 -54 -17 -60 -1 -112 35
-110 109 -165 222 -165 58 1 74 5 108 28 22 15 54 47 72 71 31 40 33 48 33
120 0 72 -3 82 -32 122 -36 51 -57 68 -113 91 -52 22 -89 21 -153 -4z"/>
<path d="M5236 1047 c-87 -19 -166 -121 -166 -214 1 -75 46 -154 114 -199 23
-14 48 -19 111 -19 72 0 86 3 123 28 23 15 54 46 69 70 23 36 27 53 27 118 0
86 -20 130 -79 175 -28 21 -127 57 -145 53 -3 -1 -27 -7 -54 -12z"/>
<path d="M0 4490 c0 -220 4 -330 10 -320 13 20 13 620 0 640 -6 10 -10 -100
-10 -320z"/>
<path d="M8972 4798 c-9 -9 -12 -91 -12 -308 0 -290 3 -320 32 -320 4 0 8 144
8 320 0 176 -4 320 -8 320 -4 0 -13 -5 -20 -12z"/>
<path d="M8946 4131 c-5 -7 -11 -63 -13 -125 -3 -61 -11 -130 -19 -154 -8 -23
-14 -67 -14 -96 0 -30 -7 -67 -15 -82 -8 -16 -15 -50 -15 -75 0 -26 -7 -60
-15 -75 -8 -16 -15 -47 -15 -69 0 -22 -7 -49 -15 -59 -8 -11 -15 -36 -15 -55
0 -20 -7 -45 -15 -55 -8 -11 -15 -36 -15 -57 0 -20 -7 -42 -15 -49 -8 -7 -15
-27 -15 -44 0 -17 -7 -40 -15 -50 -8 -11 -15 -32 -15 -47 0 -14 -7 -32 -15
-39 -8 -7 -15 -24 -15 -39 0 -14 -7 -35 -15 -45 -8 -11 -15 -28 -15 -37 0 -10
-8 -32 -17 -51 -9 -18 -22 -45 -30 -60 -7 -14 -13 -33 -13 -41 0 -8 -7 -20
-15 -27 -8 -7 -15 -23 -15 -35 0 -12 -7 -28 -15 -35 -8 -7 -15 -18 -15 -25 0
-7 -13 -37 -30 -68 -16 -31 -30 -63 -30 -72 0 -8 -4 -15 -9 -15 -5 0 -14 -12
-20 -27 -6 -16 -15 -35 -20 -43 -5 -8 -12 -22 -15 -30 -4 -8 -15 -28 -26 -45
-11 -16 -24 -39 -30 -50 -6 -11 -19 -33 -30 -50 -11 -16 -24 -39 -30 -50 -6
-11 -19 -33 -30 -50 -11 -16 -24 -40 -30 -52 -5 -13 -14 -23 -19 -23 -5 0 -12
-8 -15 -17 -13 -35 -37 -73 -47 -73 -5 0 -9 -5 -9 -10 0 -6 -5 -16 -10 -23 -6
-7 -42 -55 -81 -107 -38 -52 -74 -96 -79 -98 -6 -2 -10 -10 -10 -17 0 -7 -4
-15 -9 -17 -5 -2 -33 -32 -63 -68 -119 -146 -372 -399 -518 -518 -36 -30 -66
-58 -68 -63 -2 -5 -10 -9 -17 -9 -7 0 -15 -4 -17 -10 -1 -5 -46 -41 -98 -79
-52 -39 -100 -75 -107 -81 -7 -5 -17 -10 -23 -10 -5 0 -10 -4 -10 -9 0 -10
-38 -34 -72 -47 -10 -3 -18 -10 -18 -15 0 -5 -10 -14 -22 -19 -13 -6 -36 -19
-53 -30 -16 -11 -39 -24 -50 -30 -11 -6 -33 -19 -50 -30 -16 -11 -39 -24 -50
-30 -11 -6 -33 -19 -50 -30 -16 -11 -37 -22 -45 -26 -8 -3 -22 -10 -30 -15 -8
-5 -27 -14 -42 -20 -16 -6 -28 -15 -28 -20 0 -5 -9 -9 -19 -9 -11 0 -26 -7
-35 -15 -8 -8 -21 -15 -28 -15 -8 0 -23 -7 -34 -15 -10 -8 -26 -15 -35 -15 -9
0 -22 -7 -29 -15 -7 -8 -23 -15 -35 -15 -12 0 -28 -7 -35 -15 -7 -8 -20 -15
-29 -15 -9 0 -25 -6 -36 -14 -11 -7 -32 -16 -47 -20 -16 -3 -28 -11 -28 -16 0
-6 -13 -10 -28 -10 -16 0 -37 -7 -48 -15 -10 -8 -31 -15 -45 -15 -15 0 -32 -7
-39 -15 -7 -8 -25 -15 -39 -15 -15 0 -36 -7 -47 -15 -10 -8 -33 -15 -50 -15
-17 0 -37 -7 -44 -15 -7 -8 -29 -15 -49 -15 -21 0 -46 -7 -57 -15 -10 -8 -35
-15 -55 -15 -19 0 -44 -7 -55 -15 -10 -8 -37 -15 -59 -15 -22 0 -53 -7 -69
-15 -15 -8 -49 -15 -75 -15 -25 0 -59 -7 -75 -15 -15 -8 -52 -15 -82 -15 -29
0 -73 -6 -96 -14 -24 -8 -94 -16 -156 -19 -64 -3 -119 -10 -125 -16 -17 -17
189 -14 249 4 27 8 73 15 102 15 29 0 69 7 89 15 19 8 56 15 82 15 25 0 59 7
75 15 15 8 45 15 65 15 21 0 46 7 57 15 10 8 37 15 60 15 22 0 49 7 60 15 10
8 33 15 50 15 16 0 39 7 50 15 10 8 33 15 50 15 16 0 39 7 50 15 10 8 31 15
45 15 14 0 34 7 45 15 10 8 28 15 40 15 11 0 29 7 40 15 10 8 28 15 40 15 11
0 29 7 40 15 10 8 29 15 40 15 12 0 27 7 34 15 7 8 23 15 35 15 12 0 28 7 35
15 7 8 23 15 35 15 12 0 28 7 35 15 7 8 20 15 30 15 10 0 23 7 30 15 7 8 23
15 35 15 12 0 28 6 34 14 7 8 23 17 36 20 14 4 25 11 25 16 0 6 8 10 19 10 10
0 24 7 31 15 7 8 20 15 29 15 9 0 22 5 28 11 12 12 46 33 80 48 11 5 24 15 28
20 3 6 13 11 21 11 12 0 66 32 84 50 8 8 43 29 60 37 8 3 31 18 50 33 19 15
43 30 53 33 9 4 17 11 17 17 0 5 5 10 11 10 6 0 28 14 49 30 21 17 43 30 49
30 6 0 11 4 11 9 0 4 19 21 43 37 23 16 44 31 47 34 3 3 28 23 55 45 28 22 55
44 61 50 6 5 33 28 60 50 63 51 413 402 479 479 28 32 83 102 123 155 41 53
78 98 83 99 5 2 9 8 9 14 0 6 14 27 30 48 17 21 30 43 30 49 0 6 5 11 10 11 6
0 13 8 17 18 3 9 18 33 33 52 15 19 30 42 33 50 4 8 16 29 27 45 11 17 24 40
30 53 5 12 14 22 20 22 5 0 10 9 10 19 0 11 5 23 11 26 5 4 15 17 20 28 5 12
18 36 29 52 11 17 22 37 26 45 3 8 10 22 15 30 5 8 12 22 15 30 3 8 10 22 15
30 5 8 13 25 18 37 6 11 15 24 20 28 6 3 11 17 11 29 0 13 7 29 15 36 8 7 15
20 15 30 0 10 7 23 15 30 8 7 15 22 15 34 0 11 7 30 15 40 8 11 15 27 15 37 0
9 7 22 15 29 8 7 15 22 15 34 0 11 7 30 15 40 8 11 15 29 15 40 0 12 7 30 15
40 8 11 15 31 15 44 0 13 7 30 15 38 8 9 15 27 15 42 0 15 7 36 15 46 8 11 15
34 15 50 0 17 7 40 15 50 8 11 15 34 15 50 0 17 7 40 15 50 8 11 15 38 15 60
0 23 7 50 15 60 8 11 15 38 15 60 1 23 7 52 15 66 8 14 14 46 15 71 0 26 7 63
15 82 8 20 15 62 15 92 0 31 7 77 15 103 17 52 18 269 1 243z"/>
<path d="M20 4025 c1 -70 6 -125 15 -150 8 -22 15 -67 15 -100 0 -33 7 -73 15
-89 8 -15 15 -49 15 -75 0 -25 7 -59 15 -75 8 -15 15 -45 15 -65 0 -20 7 -49
15 -65 8 -15 15 -43 15 -60 0 -18 7 -41 15 -52 8 -10 15 -35 15 -55 0 -19 7
-44 15 -55 8 -10 15 -31 15 -45 0 -14 7 -34 15 -45 8 -10 15 -31 15 -45 0 -14
7 -34 15 -45 8 -10 15 -31 15 -45 0 -15 7 -32 15 -39 8 -7 15 -25 15 -40 0
-15 7 -33 15 -40 8 -7 15 -23 15 -35 0 -12 7 -28 15 -35 8 -7 15 -23 15 -35 0
-12 7 -28 15 -35 8 -7 15 -23 15 -35 0 -12 7 -28 15 -35 8 -7 15 -21 15 -31 0
-9 7 -24 15 -33 8 -8 15 -23 15 -34 0 -11 7 -25 15 -32 8 -7 15 -20 15 -30 0
-10 7 -23 15 -30 8 -7 15 -21 15 -32 0 -10 7 -21 15 -24 8 -4 15 -14 15 -24 0
-10 7 -23 15 -30 8 -7 15 -18 15 -26 0 -7 6 -19 13 -26 6 -7 23 -35 37 -61 45
-87 51 -97 59 -97 5 0 12 -8 15 -17 8 -23 20 -43 81 -131 28 -41 56 -84 63
-98 7 -13 17 -24 23 -24 5 0 9 -4 9 -10 0 -5 8 -19 17 -29 33 -36 43 -50 43
-60 0 -6 6 -14 13 -18 7 -4 29 -29 49 -56 128 -170 525 -567 695 -695 27 -20
52 -42 56 -49 4 -7 14 -13 20 -13 7 0 27 -13 45 -30 18 -16 36 -30 38 -30 3 0
32 -20 64 -45 32 -25 63 -45 69 -45 6 0 11 -4 11 -8 0 -5 10 -14 23 -21 12 -6
36 -20 52 -31 17 -11 38 -23 47 -26 9 -3 19 -12 22 -20 3 -8 12 -14 19 -14 8
0 20 -7 27 -15 7 -8 21 -15 31 -15 11 0 19 -4 19 -9 0 -5 12 -14 28 -20 15 -6
41 -20 57 -31 17 -11 37 -22 45 -26 8 -3 22 -10 30 -15 8 -5 39 -20 67 -34 29
-15 55 -30 58 -36 4 -5 17 -9 29 -9 13 0 29 -7 36 -15 7 -8 20 -15 30 -15 10
0 23 -7 30 -15 7 -8 23 -15 35 -15 12 0 28 -7 35 -15 7 -8 23 -15 35 -15 12 0
28 -7 35 -15 7 -8 22 -15 34 -15 11 0 30 -7 40 -15 11 -8 29 -15 40 -15 12 0
30 -7 40 -15 11 -8 31 -15 44 -15 13 0 30 -7 38 -15 9 -8 27 -15 42 -15 15 0
36 -7 46 -15 11 -8 34 -15 50 -15 17 0 40 -7 50 -15 11 -8 34 -15 50 -15 17 0
40 -7 50 -15 11 -8 38 -15 60 -15 23 0 50 -7 60 -15 11 -8 38 -15 60 -15 23
-1 52 -7 66 -15 14 -8 46 -14 71 -15 26 0 63 -7 82 -15 20 -8 62 -15 94 -15
32 0 76 -7 98 -15 50 -18 265 -21 248 -4 -6 6 -61 13 -125 16 -62 3 -132 11
-156 19 -23 8 -68 14 -100 14 -31 1 -68 7 -82 15 -14 8 -46 14 -71 15 -26 0
-60 7 -75 15 -16 8 -47 15 -69 15 -22 0 -49 7 -59 15 -11 8 -36 15 -55 15 -20
0 -45 7 -55 15 -11 8 -36 15 -55 15 -20 0 -45 7 -55 15 -11 8 -31 15 -45 15
-14 0 -35 7 -45 15 -11 8 -31 15 -45 15 -14 0 -35 7 -45 15 -11 8 -29 15 -40
15 -12 0 -30 7 -40 15 -11 8 -28 15 -37 15 -10 0 -32 8 -51 17 -18 9 -45 22
-60 30 -14 7 -35 13 -46 13 -11 0 -22 7 -26 15 -3 8 -16 15 -29 15 -14 0 -30
7 -37 15 -7 8 -20 15 -29 15 -9 0 -25 7 -35 15 -11 8 -26 15 -34 15 -7 0 -20
7 -28 15 -9 8 -24 15 -35 15 -10 0 -19 4 -19 9 0 5 -12 14 -27 20 -16 6 -35
15 -43 20 -8 5 -22 12 -30 15 -8 4 -28 15 -45 26 -16 11 -39 24 -50 30 -11 6
-33 19 -50 30 -16 11 -39 24 -50 30 -11 6 -33 19 -50 30 -16 11 -37 23 -45 27
-8 3 -31 18 -50 33 -19 15 -43 30 -52 33 -10 4 -18 11 -18 17 0 5 -5 10 -10
10 -12 0 -209 145 -226 166 -6 8 -16 14 -23 14 -6 0 -11 4 -11 8 0 5 -15 20
-34 33 -116 83 -500 466 -585 585 -13 19 -28 34 -33 34 -4 0 -8 5 -8 11 0 7
-6 17 -14 23 -20 17 -166 214 -166 224 0 6 -7 12 -15 16 -8 3 -15 10 -15 17 0
6 -13 28 -28 48 -16 20 -32 43 -35 51 -4 8 -16 29 -27 45 -11 17 -24 40 -29
51 -5 12 -13 23 -18 25 -4 2 -18 24 -31 49 -13 25 -32 59 -42 75 -10 17 -30
53 -44 82 -15 28 -31 55 -36 58 -6 3 -10 14 -10 24 0 10 -7 24 -15 31 -8 7
-15 20 -15 30 0 10 -7 23 -15 30 -8 7 -15 23 -15 35 0 12 -7 28 -15 35 -8 7
-15 20 -15 30 0 10 -7 23 -15 30 -8 7 -15 23 -15 36 0 12 -7 29 -15 38 -8 8
-15 23 -15 33 0 11 -7 28 -15 39 -8 10 -15 28 -15 40 0 11 -7 29 -15 40 -8 10
-15 28 -15 40 0 11 -7 29 -15 40 -8 10 -15 31 -15 46 0 15 -7 33 -15 42 -8 8
-15 28 -15 43 0 16 -7 38 -15 49 -8 10 -15 33 -15 50 0 16 -7 39 -15 50 -8 10
-15 35 -15 55 0 19 -7 44 -15 55 -8 10 -15 40 -15 65 0 25 -7 54 -15 65 -8 10
-15 41 -15 69 0 28 -7 63 -15 79 -8 15 -15 52 -15 82 0 29 -6 73 -14 96 -8 24
-16 94 -19 156 -6 155 -27 175 -27 27z"/>
<path d="M4180 10 c-10 -6 94 -10 303 -10 210 0 316 3 312 10 -8 13 -594 13
-615 0z"/>
</g>
</svg>
